{
  "accessors": [
    {
      "bufferView": 2,
      "componentType": 5126,
      "count": 65532,
      "max": [
        2.252310037612915,
        -3.2589240074157715,
        1.6542470455169678
      ],
      "min": [
        -1.7266219854354858,
        -5.720925807952881,
        -0.8267940282821655
      ],
      "type": "VEC3"
    },
    {
      "bufferView": 2,
      "byteOffset": 786384,
      "componentType": 5126,
      "count": 65532,
      "max": [
        0.9999881982803345,
        0.9999915361404419,
        0.9999877214431763
      ],
      "min": [
        -0.999981164932251,
        -0.9999938607215881,
        -0.9999942183494568
      ],
      "type": "VEC3"
    },
    {
      "bufferView": 1,
      "componentType": 5126,
      "count": 65532,
      "max": [
        0.9938830137252808,
        0.999064028263092
      ],
      "min": [
        5.500000042957254e-05,
        0.003031000029295683
      ],
      "type": "VEC2"
    },
    {
      "bufferView": 0,
      "componentType": 5125,
      "count": 350076,
      "type": "SCALAR"
    },
    {
      "bufferView": 2,
      "byteOffset": 1572768,
      "componentType": 5126,
      "count": 37895,
      "max": [
        1.1467009782791138,
        -3.5508580207824707,
        1.653473973274231
      ],
      "min": [
        -1.780877947807312,
        -5.720667839050293,
        -0.8312000036239624
      ],
      "type": "VEC3"
    },
    {
      "bufferView": 2,
      "byteOffset": 2027508,
      "componentType": 5126,
      "count": 37895,
      "max": [
        0.9999977946281433,
        0.9999976754188538,
        0.9999213814735413
      ],
      "min": [
        -0.999981164932251,
        -0.9998983144760132,
        -0.9999539256095886
      ],
      "type": "VEC3"
    },
    {
      "bufferView": 1,
      "byteOffset": 524256,
      "componentType": 5126,
      "count": 37895,
      "max": [
        0.9954339861869812,
        1.0001009702682495
      ],
      "min": [
        -0.0014479999663308263,
        0.003539999946951866
      ],
      "type": "VEC2"
    },
    {
      "bufferView": 0,
      "byteOffset": 1400304,
      "componentType": 5125,
      "count": 164847,
      "type": "SCALAR"
    }
  ],
  "asset": {
    "extras": {
      "author": "CaptainObvious (https://sketchfab.com/CaptainObvious)",
      "license": "CC-BY-4.0 (http://creativecommons.org/licenses/by/4.0/)",
      "source": "https://sketchfab.com/3d-models/bust-of-antoninus-pious-315879cb7d7642f3880a1210862f5938",
      "title": "Bust of Antoninus Pious"
    },
    "generator": "Sketchfab-12.68.0",
    "version": "2.0"
  },
  "bufferViews": [
    {
      "buffer": 0,
      "byteLength": 2059692,
      "name": "floatBufferViews",
      "target": 34963
    },
    {
      "buffer": 0,
      "byteLength": 827416,
      "byteOffset": 2059692,
      "byteStride": 8,
      "name": "floatBufferViews",
      "target": 34962
    },
    {
      "buffer": 0,
      "byteLength": 2482248,
      "byteOffset": 2887108,
      "byteStride": 12,
      "name": "floatBufferViews",
      "target": 34962
    }
  ],
  "buffers": [
    {
      "byteLength": 5369356,
      "uri": "scene.bin"
    }
  ],
  "extensionsRequired": [
    "KHR_materials_pbrSpecularGlossiness"
  ],
  "extensionsUsed": [
    "KHR_materials_pbrSpecularGlossiness"
  ],
  "images": [
    {
      "uri": "textures/AntoniousPious_diffuse.jpeg"
    }
  ],
  "materials": [
    {
      "doubleSided": true,
      "extensions": {
        "KHR_materials_pbrSpecularGlossiness": {
          "diffuseFactor": [
            1.0,
            1.0,
            1.0,
            1.0
          ],
          "diffuseTexture": {
            "index": 0
          },
          "glossinessFactor": 0.18464176829268295,
          "specularFactor": [
            0.0078125,
            0.0078125,
            0.0078125
          ]
        }
      },
      "name": "AntoniousPious"
    }
  ],
  "meshes": [
    {
      "name": "Object_0",
      "primitives": [
        {
          "attributes": {
            "NORMAL": 1,
            "POSITION": 0,
            "TEXCOORD_0": 2
          },
          "indices": 3,
          "material": 0,
          "mode": 4
        }
      ]
    },
    {
      "name": "Object_1",
      "primitives": [
        {
          "attributes": {
            "NORMAL": 5,
            "POSITION": 4,
            "TEXCOORD_0": 6
          },
          "indices": 7,
          "material": 0,
          "mode": 4
        }
      ]
    }
  ],
  "nodes": [
    {
      "children": [
        1
      ],
      "matrix": [
        0.01277536156278991,
        0.24979504246502415,
        -0.05511756112252003,
        0.0,
        -0.054274529531690874,
        0.05657670152665334,
        0.24382795578893024,
        0.0,
        0.2499795636808031,
        -0.000482232638527534,
        0.05575573325071659,
        0.0,
        -1.1291477680206299,
        1.174216389656065,
        8.725472450256348,
        1.0
      ],
      "name": "Sketchfab_model"
    },
    {
      "children": [
        2,
        3
      ],
      "name": "AntoniousPious.obj.cleaner.materialmerger.gles"
    },
    {
      "mesh": 0,
      "name": "Object_2"
    },
    {
      "mesh": 1,
      "name": "Object_3"
    }
  ],
  "samplers": [
    {
      "magFilter": 9729,
      "minFilter": 9987,
      "wrapS": 10497,
      "wrapT": 10497
    }
  ],
  "scene": 0,
  "scenes": [
    {
      "name": "Sketchfab_Scene",
      "nodes": [
        0
      ]
    }
  ],
  "textures": [
    {
      "sampler": 0,
      "source": 0
    }
  ]
}
