{
  "accessors": [
    {
      "bufferView": 2,
      "componentType": 5126,
      "count": 65532,
      "max": [
        -3.8693900108337402,
        0.8366510272026062,
        5.51855993270874
      ],
      "min": [
        -6.3959221839904785,
        -2.490248918533325,
        0.04638100042939186
      ],
      "type": "VEC3"
    },
    {
      "bufferView": 2,
      "byteOffset": 786384,
      "componentType": 5126,
      "count": 65532,
      "max": [
        0.9999661445617676,
        0.9998639822006226,
        0.9999997615814209
      ],
      "min": [
        -0.9999993443489075,
        -0.9999619722366333,
        -0.9999922513961792
      ],
      "type": "VEC3"
    },
    {
      "bufferView": 1,
      "componentType": 5126,
      "count": 65532,
      "max": [
        0.9759259819984436,
        0.9985510110855103
      ],
      "min": [
        0.006682000122964382,
        0.004441999830305576
      ],
      "type": "VEC2"
    },
    {
      "bufferView": 0,
      "componentType": 5125,
      "count": 332010,
      "type": "SCALAR"
    },
    {
      "bufferView": 2,
      "byteOffset": 1572768,
      "componentType": 5126,
      "count": 65532,
      "max": [
        -3.9346048831939697,
        1.0269759893417358,
        5.445079803466797
      ],
      "min": [
        -6.483877182006836,
        -2.477107048034668,
        0.25273001194000244
      ],
      "type": "VEC3"
    },
    {
      "bufferView": 2,
      "byteOffset": 2359152,
      "componentType": 5126,
      "count": 65532,
      "max": [
        0.9485167860984802,
        0.9999944567680359,
        0.9999552369117737
      ],
      "min": [
        -0.9999771118164063,
        -1.0,
        -0.9991284608840942
      ],
      "type": "VEC3"
    },
    {
      "bufferView": 1,
      "byteOffset": 524256,
      "componentType": 5126,
      "count": 65532,
      "max": [
        0.8846359848976135,
        0.9963260293006897
      ],
      "min": [
        0.004157999996095896,
        0.014801999554038048
      ],
      "type": "VEC2"
    },
    {
      "bufferView": 0,
      "byteOffset": 1328040,
      "componentType": 5125,
      "count": 341574,
      "type": "SCALAR"
    },
    {
      "bufferView": 2,
      "byteOffset": 3145536,
      "componentType": 5126,
      "count": 65532,
      "max": [
        -3.675507068634033,
        1.0268189907073975,
        5.513679027557373
      ],
      "min": [
        -6.5923027992248535,
        -2.4674289226531982,
        0.1342339962720871
      ],
      "type": "VEC3"
    },
    {
      "bufferView": 2,
      "byteOffset": 3931920,
      "componentType": 5126,
      "count": 65532,
      "max": [
        0.999596357345581,
        0.9999944567680359,
        0.9999873638153076
      ],
      "min": [
        -0.9999966621398926,
        -0.9999653697013855,
        -0.9999845027923584
      ],
      "type": "VEC3"
    },
    {
      "bufferView": 1,
      "byteOffset": 1048512,
      "componentType": 5126,
      "count": 65532,
      "max": [
        0.9958140254020691,
        0.9986709952354431
      ],
      "min": [
        0.004974000155925751,
        0.0031870000530034304
      ],
      "type": "VEC2"
    },
    {
      "bufferView": 0,
      "byteOffset": 2694336,
      "componentType": 5125,
      "count": 311064,
      "type": "SCALAR"
    },
    {
      "bufferView": 2,
      "byteOffset": 4718304,
      "componentType": 5126,
      "count": 65532,
      "max": [
        -3.8729910850524902,
        1.0050389766693115,
        5.518468856811523
      ],
      "min": [
        -6.591874122619629,
        -2.477107048034668,
        0.05829799920320511
      ],
      "type": "VEC3"
    },
    {
      "bufferView": 2,
      "byteOffset": 5504688,
      "componentType": 5126,
      "count": 65532,
      "max": [
        0.9998092651367188,
        0.9999937415122986,
        0.9999982118606567
      ],
      "min": [
        -0.9999991059303284,
        -1.0,
        -0.9999886155128479
      ],
      "type": "VEC3"
    },
    {
      "bufferView": 1,
      "byteOffset": 1572768,
      "componentType": 5126,
      "count": 65532,
      "max": [
        0.9953240156173706,
        0.9966679811477661
      ],
      "min": [
        0.006407999899238348,
        0.003636999987065792
      ],
      "type": "VEC2"
    },
    {
      "bufferView": 0,
      "byteOffset": 3938592,
      "componentType": 5125,
      "count": 287301,
      "type": "SCALAR"
    },
    {
      "bufferView": 2,
      "byteOffset": 6291072,
      "componentType": 5126,
      "count": 65532,
      "max": [
        -3.6324939727783203,
        0.8904979825019836,
        5.431980133056641
      ],
      "min": [
        -5.579204082489014,
        -2.490248918533325,
        0.09143999963998795
      ],
      "type": "VEC3"
    },
    {
      "bufferView": 2,
      "byteOffset": 7077456,
      "componentType": 5126,
      "count": 65532,
      "max": [
        0.9999930262565613,
        0.9994981288909912,
        0.9983822107315063
      ],
      "min": [
        -0.8242236971855164,
        -0.9999619722366333,
        -0.9999972581863403
      ],
      "type": "VEC3"
    },
    {
      "bufferView": 1,
      "byteOffset": 2097024,
      "componentType": 5126,
      "count": 65532,
      "max": [
        0.9937769770622253,
        0.9989380240440369
      ],
      "min": [
        0.006209000013768673,
        0.03504899889230728
      ],
      "type": "VEC2"
    },
    {
      "bufferView": 0,
      "byteOffset": 5087796,
      "componentType": 5125,
      "count": 315360,
      "type": "SCALAR"
    },
    {
      "bufferView": 2,
      "byteOffset": 7863840,
      "componentType": 5126,
      "count": 5851,
      "max": [
        -3.6324939727783203,
        0.17396000027656555,
        4.518442153930664
      ],
      "min": [
        -4.7808427810668945,
        -2.490248918533325,
        0.2306949943304062
      ],
      "type": "VEC3"
    },
    {
      "bufferView": 2,
      "byteOffset": 7934052,
      "componentType": 5126,
      "count": 5851,
      "max": [
        0.9999274611473083,
        0.5359720587730408,
        0.9033597707748413
      ],
      "min": [
        -0.6278590559959412,
        -0.999441385269165,
        -0.9999144673347473
      ],
      "type": "VEC3"
    },
    {
      "bufferView": 1,
      "byteOffset": 2621280,
      "componentType": 5126,
      "count": 5851,
      "max": [
        0.9857410192489624,
        0.9948059916496277
      ],
      "min": [
        0.006231000181287527,
        0.3477579951286316
      ],
      "type": "VEC2"
    },
    {
      "bufferView": 0,
      "byteOffset": 6349236,
      "componentType": 5125,
      "count": 17781,
      "type": "SCALAR"
    }
  ],
  "asset": {
    "extras": {
      "author": "The British Museum (https://sketchfab.com/britishmuseum)",
      "license": "CC-BY-NC-SA-4.0 (http://creativecommons.org/licenses/by-nc-sa/4.0/)",
      "source": "https://sketchfab.com/3d-models/alexander-39505bba2c5247eb943b5cde253bf495",
      "title": "Alexander"
    },
    "generator": "Sketchfab-12.64.0",
    "version": "2.0"
  },
  "bufferViews": [
    {
      "buffer": 0,
      "byteLength": 6420360,
      "name": "floatBufferViews",
      "target": 34963
    },
    {
      "buffer": 0,
      "byteLength": 2668088,
      "byteOffset": 6420360,
      "byteStride": 8,
      "name": "floatBufferViews",
      "target": 34962
    },
    {
      "buffer": 0,
      "byteLength": 8004264,
      "byteOffset": 9088448,
      "byteStride": 12,
      "name": "floatBufferViews",
      "target": 34962
    }
  ],
  "buffers": [
    {
      "byteLength": 17092712,
      "uri": "scene.bin"
    }
  ],
  "extensionsUsed": [
    "KHR_materials_unlit"
  ],
  "images": [
    {
      "uri": "textures/alexander_baseColor.jpeg"
    }
  ],
  "materials": [
    {
      "doubleSided": true,
      "extensions": {
        "KHR_materials_unlit": {}
      },
      "name": "alexander",
      "pbrMetallicRoughness": {
        "baseColorTexture": {
          "index": 0
        },
        "metallicFactor": 0.0
      }
    }
  ],
  "meshes": [
    {
      "name": "Object_0",
      "primitives": [
        {
          "attributes": {
            "NORMAL": 1,
            "POSITION": 0,
            "TEXCOORD_0": 2
          },
          "indices": 3,
          "material": 0,
          "mode": 4
        }
      ]
    },
    {
      "name": "Object_1",
      "primitives": [
        {
          "attributes": {
            "NORMAL": 5,
            "POSITION": 4,
            "TEXCOORD_0": 6
          },
          "indices": 7,
          "material": 0,
          "mode": 4
        }
      ]
    },
    {
      "name": "Object_2",
      "primitives": [
        {
          "attributes": {
            "NORMAL": 9,
            "POSITION": 8,
            "TEXCOORD_0": 10
          },
          "indices": 11,
          "material": 0,
          "mode": 4
        }
      ]
    },
    {
      "name": "Object_3",
      "primitives": [
        {
          "attributes": {
            "NORMAL": 13,
            "POSITION": 12,
            "TEXCOORD_0": 14
          },
          "indices": 15,
          "material": 0,
          "mode": 4
        }
      ]
    },
    {
      "name": "Object_4",
      "primitives": [
        {
          "attributes": {
            "NORMAL": 17,
            "POSITION": 16,
            "TEXCOORD_0": 18
          },
          "indices": 19,
          "material": 0,
          "mode": 4
        }
      ]
    },
    {
      "name": "Object_5",
      "primitives": [
        {
          "attributes": {
            "NORMAL": 21,
            "POSITION": 20,
            "TEXCOORD_0": 22
          },
          "indices": 23,
          "material": 0,
          "mode": 4
        }
      ]
    }
  ],
  "nodes": [
    {
      "children": [
        1
      ],
      "matrix": [
        1.0,
        0.0,
        0.0,
        0.0,
        0.0,
        2.220446049250313e-16,
        -1.0,
        0.0,
        0.0,
        1.0,
        2.220446049250313e-16,
        0.0,
        0.0,
        0.0,
        0.0,
        1.0
      ],
      "name": "Sketchfab_model"
    },
    {
      "children": [
        2,
        3,
        4,
        5,
        6,
        7
      ],
      "name": "alexander.obj.cleaner.materialmerger.gles"
    },
    {
      "mesh": 0,
      "name": "Object_2"
    },
    {
      "mesh": 1,
      "name": "Object_3"
    },
    {
      "mesh": 2,
      "name": "Object_4"
    },
    {
      "mesh": 3,
      "name": "Object_5"
    },
    {
      "mesh": 4,
      "name": "Object_6"
    },
    {
      "mesh": 5,
      "name": "Object_7"
    }
  ],
  "samplers": [
    {
      "magFilter": 9729,
      "minFilter": 9987,
      "wrapS": 10497,
      "wrapT": 10497
    }
  ],
  "scene": 0,
  "scenes": [
    {
      "name": "Sketchfab_Scene",
      "nodes": [
        0
      ]
    }
  ],
  "textures": [
    {
      "sampler": 0,
      "source": 0
    }
  ]
}
